<?xml version="1.0" standalone="no"?><!DOCTYPE svg PUBLIC "-//W3C//DTD SVG 1.1//EN" "http://www.w3.org/Graphics/SVG/1.1/DTD/svg11.dtd"><svg t="1545311649106" class="icon" style="" viewBox="0 0 1024 1024" version="1.1" xmlns="http://www.w3.org/2000/svg" p-id="6297" xmlns:xlink="http://www.w3.org/1999/xlink" width="30" height="30"><defs><style type="text/css"></style></defs><path d="M510.339459 999.036541c-275.123892 0-498.162162-223.065946-498.162162-498.162163 0-275.151568 223.03827-498.162162 498.162162-498.162162s498.162162 223.010595 498.162163 498.162162c0 275.096216-223.03827 498.162162-498.162163 498.162163z m0-55.351352c244.54227 0 442.810811-198.268541 442.810811-442.810811 0-244.569946-198.268541-442.810811-442.810811-442.81081-244.569946 0-442.810811 198.240865-442.81081 442.81081 0 244.54227 198.240865 442.810811 442.81081 442.810811z" fill="#4792F9" p-id="6298"></path><path d="M288.491243 475.634162l129.439135 113.138162L740.185946 262.97427s21.642378-21.642378 40.489513-4.73254c5.645838 5.092324 12.121946 19.511351-2.49081 42.067027L441.703784 732.907243s-25.821405 38.71827-56.458379-0.442811L240.141838 517.258378s-17.241946-29.142486 4.317405-46.605837c7.278703-5.839568 23.801081-14.972541 44.059676 4.953945z" fill="#4792F9" p-id="6299"></path></svg>